<svg xmlns="http://www.w3.org/2000/svg" width="700pt" height="700pt" version="1.0" viewBox="0 0 700 700">
  <path d="M329.7 42.3c-1.6.2-7 .9-12 1.5-67.4 8.7-127.9 47.6-165.2 106.2-47.1 74-47.1 169.8 0 243.8 37.3 58.6 97.8 97.5 165.2 106.2 16.7 2.1 49.9 2.1 66.6 0 67.4-8.7 127.9-47.6 165.2-106.2 47.1-74 47.1-169.8 0-243.8-37.3-58.6-97.8-97.5-165.2-106.2-11.9-1.5-43.1-2.7-54.6-2.1zm36.8 79.2c2.5.8 6.1 2.9 8 4.6 3.3 3 3.5 3.5 3.5 9.4 0 5.7-.3 6.5-3.1 9.3-2.9 2.9-3.7 3.2-9.4 3.2-5.7 0-6.5-.3-9.4-3.2-2.8-2.8-3.1-3.6-3.1-9.3 0-5.9.2-6.4 3.5-9.4 4-3.6 6.2-4.6 10-4.6 1.7 0 4.9.7 7 1.5zm-76.9 40.7c1.9.8 4.4 2.6 5.5 4 1.9 2.4 2.1 4 2.5 19.8l.5 17.2 3.7-5.3c7.1-10.3 17.9-16.9 30.7-18.8 19.5-2.9 39.3 7.7 47.2 25.2 2.1 4.7 2.3 6.7 2.3 19.7 0 13.4-.2 14.9-2.5 19.5-7.9 16.1-24.2 25.5-42.5 24.5-13.2-.7-22.9-5.7-30.9-15.8l-5.1-6.4v9.6c0 9.1-.1 9.7-2.8 12.4-2.6 2.6-3.4 2.8-9.8 2.8-6.4 0-7.2-.2-9.8-2.8-2.7-2.7-2.8-3.3-2.8-12.5V164.2l2.8-2.8c3.7-3.7 7.1-4.4 13-2.7zm155.9-.2c2.5.8 6.1 2.9 8 4.6 3.3 3 3.5 3.5 3.5 9.4 0 5.7-.3 6.5-3.1 9.3-2.9 2.9-3.7 3.2-9.4 3.2-5.7 0-6.5-.3-9.4-3.2-2.8-2.8-3.1-3.6-3.1-9.3 0-5.9.2-6.4 3.5-9.4 4-3.6 6.2-4.6 10-4.6 1.7 0 4.9.7 7 1.5zm-232.3 40.5c2.5.8 6.1 2.9 8 4.6 3.3 3 3.5 3.5 3.5 9.4 0 5.7-.3 6.5-3.1 9.3-2.9 2.9-3.7 3.2-9.4 3.2-5.7 0-6.5-.3-9.4-3.2-2.8-2.8-3.1-3.6-3.1-9.3 0-5.9.2-6.4 3.5-9.4 4-3.6 6.2-4.6 10-4.6 1.7 0 4.9.7 7 1.5zm309.3 0c2.5.8 6.1 2.9 8 4.6 3.3 3 3.5 3.5 3.5 9.4 0 5.7-.3 6.5-3.1 9.3-2.9 2.9-3.7 3.2-9.4 3.2-5.7 0-6.5-.3-9.4-3.2-2.8-2.8-3.1-3.6-3.1-9.3 0-5.9.2-6.4 3.5-9.4 4-3.6 6.2-4.6 10-4.6 1.7 0 4.9.7 7 1.5zm-232.3 40.5c2.5.8 6.1 2.9 8 4.6 3.3 3 3.5 3.5 3.5 9.4 0 5.7-.3 6.5-3.1 9.3-2.9 2.9-3.7 3.2-9.4 3.2-5.7 0-6.5-.3-9.4-3.2-2.8-2.8-3.1-3.6-3.1-9.3 0-5.9.2-6.4 3.5-9.4 4-3.6 6.2-4.6 10-4.6 1.7 0 4.9.7 7 1.5zm155.9 0c2.5.8 6.1 2.9 8 4.6 3.3 3 3.5 3.5 3.5 9.4 0 5.7-.3 6.5-3.1 9.3-2.9 2.9-3.7 3.2-9.4 3.2-5.7 0-6.5-.3-9.4-3.2-2.8-2.8-3.1-3.6-3.1-9.3 0-5.9.2-6.4 3.5-9.4 4-3.6 6.2-4.6 10-4.6 1.7 0 4.9.7 7 1.5zm-76.9 40.7c1.9.8 4.4 2.6 5.5 4 1.9 2.4 2.1 4 2.5 19.8l.5 17.2 3.7-5.3c7.1-10.3 17.9-16.9 30.7-18.8 19.5-2.9 39.3 7.7 47.2 25.2 2.1 4.7 2.3 6.7 2.3 19.7 0 13.4-.2 14.9-2.5 19.5-7.9 16.1-24.2 25.5-42.5 24.5-13.2-.7-22.9-5.7-30.9-15.8l-5.1-6.4v9.6c0 9.1-.1 9.7-2.8 12.4-2.6 2.6-3.4 2.8-9.8 2.8-6.4 0-7.2-.2-9.8-2.8-2.7-2.7-2.8-3.3-2.8-12.5V324.2l2.8-2.8c3.7-3.7 7.1-4.4 13-2.7zm-79 40.5c2.5.8 6.1 2.9 8 4.6 3.3 3 3.5 3.5 3.5 9.4 0 5.7-.3 6.5-3.1 9.3-2.9 2.9-3.7 3.2-9.4 3.2-5.7 0-6.5-.3-9.4-3.2-2.8-2.8-3.1-3.6-3.1-9.3 0-5.9.2-6.4 3.5-9.4 4-3.6 6.2-4.6 10-4.6 1.7 0 4.9.7 7 1.5zm155.9 0c2.5.8 6.1 2.9 8 4.6 3.3 3 3.5 3.5 3.5 9.4 0 5.7-.3 6.5-3.1 9.3-2.9 2.9-3.7 3.2-9.4 3.2-5.7 0-6.5-.3-9.4-3.2-2.8-2.8-3.1-3.6-3.1-9.3 0-5.9.2-6.4 3.5-9.4 4-3.6 6.2-4.6 10-4.6 1.7 0 4.9.7 7 1.5zm-232.3 40.5c2.5.8 6.1 2.9 8 4.6 3.3 3 3.5 3.5 3.5 9.4 0 5.7-.3 6.5-3.1 9.3-2.9 2.9-3.7 3.2-9.4 3.2-5.7 0-6.5-.3-9.4-3.2-2.8-2.8-3.1-3.6-3.1-9.3 0-5.9.2-6.4 3.5-9.4 4-3.6 6.2-4.6 10-4.6 1.7 0 4.9.7 7 1.5zm309.3 0c2.5.8 6.1 2.9 8 4.6 3.3 3 3.5 3.5 3.5 9.4 0 5.7-.3 6.5-3.1 9.3-2.9 2.9-3.7 3.2-9.4 3.2-5.7 0-6.5-.3-9.4-3.2-2.8-2.8-3.1-3.6-3.1-9.3 0-5.9.2-6.4 3.5-9.4 4-3.6 6.2-4.6 10-4.6 1.7 0 4.9.7 7 1.5zm-232.3 40.5c2.5.8 6.1 2.9 8 4.6 3.3 3 3.5 3.5 3.5 9.4 0 5.7-.3 6.5-3.1 9.3-2.9 2.9-3.7 3.2-9.4 3.2-5.7 0-6.5-.3-9.4-3.2-2.8-2.8-3.1-3.6-3.1-9.3 0-5.9.2-6.4 3.5-9.4 4-3.6 6.2-4.6 10-4.6 1.7 0 4.9.7 7 1.5zm155.9 0c2.5.8 6.1 2.9 8 4.6 3.3 3 3.5 3.5 3.5 9.4 0 5.7-.3 6.5-3.1 9.3-2.9 2.9-3.7 3.2-9.4 3.2-5.7 0-6.5-.3-9.4-3.2-2.8-2.8-3.1-3.6-3.1-9.3 0-5.9.2-6.4 3.5-9.4 4-3.6 6.2-4.6 10-4.6 1.7 0 4.9.7 7 1.5zm-76.9 40.7c1.9.8 4.4 2.6 5.5 4 1.9 2.4 2.1 4 2.5 19.8l.5 17.2 3.7-5.3c7.1-10.3 17.9-16.9 30.7-18.8 19.5-2.9 39.3 7.7 47.2 25.2 2.1 4.7 2.3 6.7 2.3 19.7 0 13.4-.2 14.9-2.5 19.5-7.9 16.1-24.2 25.5-42.5 24.5-13.2-.7-22.9-5.7-30.9-15.8l-5.1-6.4v9.6c0 9.1-.1 9.7-2.8 12.4-2.6 2.6-3.4 2.8-9.8 2.8-6.4 0-7.2-.2-9.8-2.8-2.7-2.7-2.8-3.3-2.8-12.5V484.2l2.8-2.8c3.7-3.7 7.1-4.4 13-2.7z" fill="#ff3c00"/>
</svg>